<?xml version="1.0" standalone="no"?>
<!DOCTYPE svg PUBLIC "-//W3C//DTD SVG 20010904//EN"
 "http://www.w3.org/TR/2001/REC-SVG-20010904/DTD/svg10.dtd">
<svg version="1.0" xmlns="http://www.w3.org/2000/svg"
 width="1024.000000pt" height="1024.000000pt" viewBox="0 0 1024.000000 1024.000000"
 preserveAspectRatio="xMidYMid meet">

<g transform="translate(0.000000,1024.000000) scale(0.100000,-0.100000)"
fill="#000000" stroke="none">
<path d="M4450 7799 c-276 -6 -290 -8 -436 -60 -384 -135 -673 -431 -779 -797
-22 -74 -167 -917 -196 -1136 -45 -348 147 -633 506 -749 71 -23 874 -262
1775 -528 168 -50 319 -97 336 -105 59 -28 60 -39 5 -328 -27 -144 -54 -273
-59 -287 -14 -35 -75 -86 -119 -99 -27 -8 -257 -10 -755 -8 l-717 3 -30 29
c-17 16 -33 43 -37 60 -3 18 12 131 36 263 32 182 38 237 30 253 -11 21 -13
21 -587 16 -460 -4 -578 -7 -588 -18 -11 -12 -50 -234 -155 -883 -22 -137 -61
-373 -86 -523 -38 -229 -43 -276 -32 -289 12 -15 153 -15 1598 -9 872 4 1614
11 1650 16 182 26 410 119 556 228 249 186 416 447 482 752 44 201 190 1104
198 1220 16 228 -85 443 -271 575 -90 64 -185 105 -380 163 -264 78 -1526 456
-1750 523 -110 33 -210 67 -222 75 -13 8 -26 26 -29 40 -10 40 74 458 100 496
47 69 13 66 809 70 l719 3 24 -28 c31 -36 30 -52 -7 -264 -16 -96 -29 -189
-27 -206 l3 -32 564 0 c361 0 568 4 576 10 7 6 24 89 38 185 15 96 65 432 112
745 47 314 85 584 83 600 l-3 30 -1335 1 c-734 0 -1454 -3 -1600 -7z"/>
</g>
</svg>
